<svg
    width="200"
    height="200"
    viewBox="0 0 200 200"
    fill="none"
    xmlns="http://www.w3.org/2000/svg"
>
    <!-- Shield Background -->
    <path
        d="M100 10L160 40V90C160 140 130 180 100 190C70 180 40 140 40 90V40L100 10Z"
        fill="url(#gradient1)"
        stroke="#fff"
        stroke-width="4"
    />

    <!-- Blockchain Links -->
    <rect x="50" y="60" width="20" height="20" rx="5" fill="#fff" />
    <rect x="130" y="60" width="20" height="20" rx="5" fill="#fff" />
    <rect x="90" y="110" width="20" height="20" rx="5" fill="#fff" />
    
    <!-- Connecting Lines -->
    <line x1="60" y1="70" x2="100" y2="120" stroke="#fff" stroke-width="4"/>
    <line x1="140" y1="70" x2="100" y2="120" stroke="#fff" stroke-width="4"/>

    <!-- Lock Icon (Insurance Security) -->
    <rect x="80" y="30" width="40" height="50" rx="5" fill="white"/>
    <circle cx="100" cy="45" r="10" stroke="black" stroke-width="3"/>
    <rect x="95" y="50" width="10" height="20" fill="black"/>

    <!-- Gradient Background -->
    <defs>
        <linearGradient id="gradient1" x1="100" y1="10" x2="100" y2="190" gradientUnits="userSpaceOnUse">
            <stop stop-color="#667eea"/>
            <stop offset="1" stop-color="#764ba2"/>
        </linearGradient>
    </defs>
</svg>
